<?xml version="1.0" encoding="UTF-8" standalone="no"?>
<!DOCTYPE svg PUBLIC "-//W3C//DTD SVG 1.1//EN"
 "http://www.w3.org/Graphics/SVG/1.1/DTD/svg11.dtd">
<!-- Generated by graphviz version 2.47.0 (20210316.0004)
 -->
<!-- Title: dependencies Pages: 1 -->
<svg width="1665pt" height="298pt"
 viewBox="0.00 0.00 1665.00 298.00" xmlns="http://www.w3.org/2000/svg" xmlns:xlink="http://www.w3.org/1999/xlink">
<g id="graph0" class="graph" transform="scale(1 1) rotate(0) translate(4 294)">
<title>dependencies</title>
<polygon fill="white" stroke="transparent" points="-4,4 -4,-294 1661,-294 1661,4 -4,4"/>
<text text-anchor="start" x="807.51" y="-42.4" font-family="Times-12" font-weight="bold" font-size="14.00">Legend</text>
<polygon fill="#ffffb3" stroke="transparent" points="594.5,-10 594.5,-30 614.5,-30 614.5,-10 594.5,-10"/>
<text text-anchor="start" x="618.13" y="-15.4" font-family="Times-12" font-size="14.00"> &#160;Declarations</text>
<polygon fill="#8dd3c7" stroke="transparent" points="707.5,-10 707.5,-30 727.5,-30 727.5,-10 707.5,-10"/>
<text text-anchor="start" x="731.23" y="-15.4" font-family="Times-12" font-size="14.00"> &#160;Module</text>
<polygon fill="#80b1d3" stroke="transparent" points="793.5,-10 793.5,-30 813.5,-30 813.5,-10 793.5,-10"/>
<text text-anchor="start" x="817.28" y="-15.4" font-family="Times-12" font-size="14.00"> &#160;Bootstrap</text>
<polygon fill="#fdb462" stroke="transparent" points="890.5,-10 890.5,-30 910.5,-30 910.5,-10 890.5,-10"/>
<text text-anchor="start" x="914.17" y="-15.4" font-family="Times-12" font-size="14.00"> &#160;Providers</text>
<polygon fill="#fb8072" stroke="transparent" points="986.5,-10 986.5,-30 1006.5,-30 1006.5,-10 986.5,-10"/>
<text text-anchor="start" x="1010.23" y="-15.4" font-family="Times-12" font-size="14.00"> &#160;Exports</text>
<g id="clust13" class="cluster">
<title>cluster_PostsModule</title>
<polygon fill="none" stroke="black" stroke-dasharray="1,5" points="8,-70 8,-198 276,-198 276,-70 8,-70"/>
</g>
<g id="clust15" class="cluster">
<title>cluster_PostsModule_imports</title>
<polygon fill="none" stroke="black" points="160,-78 160,-130 268,-130 268,-78 160,-78"/>
</g>
<g id="clust18" class="cluster">
<title>cluster_PostsModule_providers</title>
<polygon fill="none" stroke="black" points="16,-78 16,-130 152,-130 152,-78 16,-78"/>
</g>
<g id="clust26" class="cluster">
<title>cluster_UsersModule</title>
<polygon fill="none" stroke="black" stroke-dasharray="1,5" points="550,-138 550,-206 824,-206 824,-138 550,-138"/>
</g>
<g id="clust31" class="cluster">
<title>cluster_UsersModule_providers</title>
<polygon fill="none" stroke="black" points="676,-146 676,-198 816,-198 816,-146 676,-146"/>
</g>
<g id="clust29" class="cluster">
<title>cluster_UsersModule_exports</title>
<polygon fill="none" stroke="black" points="558,-146 558,-198 668,-198 668,-146 558,-146"/>
</g>
<g id="clust19" class="cluster">
<title>cluster_TemplatePlaygroundModule</title>
<polygon fill="none" stroke="black" stroke-dasharray="1,5" points="832,-70 832,-282 1649,-282 1649,-70 832,-70"/>
</g>
<g id="clust25" class="cluster">
<title>cluster_TemplatePlaygroundModule_providers</title>
<polygon fill="none" stroke="black" points="1062,-78 1062,-130 1641,-130 1641,-78 1062,-78"/>
</g>
<g id="clust24" class="cluster">
<title>cluster_TemplatePlaygroundModule_bootstrap</title>
<polygon fill="none" stroke="black" points="1140,-222 1140,-274 1358,-274 1358,-222 1140,-222"/>
</g>
<g id="clust20" class="cluster">
<title>cluster_TemplatePlaygroundModule_declarations</title>
<polygon fill="none" stroke="black" points="840,-78 840,-130 1054,-130 1054,-78 840,-78"/>
</g>
<g id="clust1" class="cluster">
<title>cluster_AppModule</title>
<polygon fill="none" stroke="black" stroke-dasharray="1,5" points="284,-138 284,-274 542,-274 542,-138 284,-138"/>
</g>
<g id="clust6" class="cluster">
<title>cluster_AppModule_providers</title>
<polygon fill="none" stroke="black" points="292,-146 292,-198 422,-198 422,-146 292,-146"/>
</g>
<g id="clust3" class="cluster">
<title>cluster_AppModule_imports</title>
<polygon fill="none" stroke="black" points="430,-146 430,-198 534,-198 534,-146 430,-146"/>
</g>
<g id="clust7" class="cluster">
<title>cluster_AuthModule</title>
<polygon fill="none" stroke="black" stroke-dasharray="1,5" points="550,-214 550,-282 814,-282 814,-214 550,-214"/>
</g>
<g id="clust12" class="cluster">
<title>cluster_AuthModule_providers</title>
<polygon fill="none" stroke="black" points="672,-222 672,-274 806,-274 806,-222 672,-222"/>
</g>
<g id="clust10" class="cluster">
<title>cluster_AuthModule_exports</title>
<polygon fill="none" stroke="black" points="558,-222 558,-274 664,-274 664,-222 558,-222"/>
</g>
<!-- AuthModule -->
<g id="node1" class="node">
<title>AuthModule</title>
<polygon fill="#8dd3c7" stroke="black" points="525.55,-190 522.55,-194 501.55,-194 498.55,-190 438.45,-190 438.45,-154 525.55,-154 525.55,-190"/>
<text text-anchor="middle" x="482" y="-167.8" font-family="Times,serif" font-size="14.00">AuthModule</text>
</g>
<!-- AppModule -->
<g id="node4" class="node">
<title>AppModule</title>
<polygon fill="#8dd3c7" stroke="black" points="386.66,-266 383.66,-270 362.66,-270 359.66,-266 303.34,-266 303.34,-230 386.66,-230 386.66,-266"/>
<text text-anchor="middle" x="345" y="-243.8" font-family="Times,serif" font-size="14.00">AppModule</text>
</g>
<!-- AuthModule&#45;&gt;AppModule -->
<g id="edge1" class="edge">
<title>AuthModule&#45;&gt;AppModule</title>
<path fill="none" stroke="black" d="M482,-190.03C482,-210.77 482,-242 482,-242 482,-242 396.85,-242 396.85,-242"/>
<polygon fill="black" stroke="black" points="396.85,-238.5 386.85,-242 396.85,-245.5 396.85,-238.5"/>
</g>
<!-- AuthService  -->
<g id="node6" class="node">
<title>AuthService </title>
<polygon fill="#fb8072" stroke="black" points="655.98,-266 566.02,-266 566.02,-230 655.98,-230 655.98,-266"/>
<text text-anchor="middle" x="611" y="-243.8" font-family="Times,serif" font-size="14.00">AuthService </text>
</g>
<!-- AuthModule&#45;&gt;AuthService  -->
<g id="edge5" class="edge">
<title>AuthModule&#45;&gt;AuthService </title>
<path fill="none" stroke="black" stroke-dasharray="5,2" d="M503.89,-190.2C503.89,-214.36 503.89,-254 503.89,-254 503.89,-254 556.19,-254 556.19,-254"/>
<polygon fill="black" stroke="black" points="556.2,-257.5 566.19,-254 556.19,-250.5 556.2,-257.5"/>
</g>
<!-- PostsModule -->
<g id="node2" class="node">
<title>PostsModule</title>
<polygon fill="#8dd3c7" stroke="black" points="243.61,-190 240.61,-194 219.61,-194 216.61,-190 154.39,-190 154.39,-154 243.61,-154 243.61,-190"/>
<text text-anchor="middle" x="199" y="-167.8" font-family="Times,serif" font-size="14.00">PostsModule</text>
</g>
<!-- PostsModule&#45;&gt;AppModule -->
<g id="edge2" class="edge">
<title>PostsModule&#45;&gt;AppModule</title>
<path fill="none" stroke="black" d="M199,-190.2C199,-214.36 199,-254 199,-254 199,-254 293.16,-254 293.16,-254"/>
<polygon fill="black" stroke="black" points="293.16,-257.5 303.16,-254 293.16,-250.5 293.16,-257.5"/>
</g>
<!-- UsersModule -->
<g id="node3" class="node">
<title>UsersModule</title>
<polygon fill="#8dd3c7" stroke="black" points="259.92,-122 256.92,-126 235.92,-126 232.92,-122 168.08,-122 168.08,-86 259.92,-86 259.92,-122"/>
<text text-anchor="middle" x="214" y="-99.8" font-family="Times,serif" font-size="14.00">UsersModule</text>
</g>
<!-- UsersModule&#45;&gt;PostsModule -->
<g id="edge7" class="edge">
<title>UsersModule&#45;&gt;PostsModule</title>
<path fill="none" stroke="black" d="M205.92,-122.22C205.92,-122.22 205.92,-143.73 205.92,-143.73"/>
<polygon fill="black" stroke="black" points="202.42,-143.73 205.92,-153.73 209.42,-143.73 202.42,-143.73"/>
</g>
<!-- UsersModule&#45;&gt;AppModule -->
<g id="edge3" class="edge">
<title>UsersModule&#45;&gt;AppModule</title>
<path fill="none" stroke="black" d="M251.63,-122.04C251.63,-159.45 251.63,-242 251.63,-242 251.63,-242 293.23,-242 293.23,-242"/>
<polygon fill="black" stroke="black" points="293.23,-245.5 303.23,-242 293.23,-238.5 293.23,-245.5"/>
</g>
<!-- UsersService  -->
<g id="node15" class="node">
<title>UsersService </title>
<polygon fill="#fb8072" stroke="black" points="659.85,-190 566.15,-190 566.15,-154 659.85,-154 659.85,-190"/>
<text text-anchor="middle" x="613" y="-167.8" font-family="Times,serif" font-size="14.00">UsersService </text>
</g>
<!-- UsersModule&#45;&gt;UsersService  -->
<g id="edge14" class="edge">
<title>UsersModule&#45;&gt;UsersService </title>
<path fill="none" stroke="black" stroke-dasharray="5,2" d="M259.77,-110C364.57,-110 613,-110 613,-110 613,-110 613,-143.73 613,-143.73"/>
<polygon fill="black" stroke="black" points="609.5,-143.73 613,-153.73 616.5,-143.73 609.5,-143.73"/>
</g>
<!-- AppService -->
<g id="node5" class="node">
<title>AppService</title>
<ellipse fill="#fdb462" stroke="black" cx="357" cy="-172" rx="56.74" ry="18"/>
<text text-anchor="middle" x="357" y="-167.8" font-family="Times,serif" font-size="14.00">AppService</text>
</g>
<!-- AppService&#45;&gt;AppModule -->
<g id="edge4" class="edge">
<title>AppService&#45;&gt;AppModule</title>
<path fill="none" stroke="black" d="M345,-189.63C345,-189.63 345,-219.94 345,-219.94"/>
<polygon fill="black" stroke="black" points="341.5,-219.94 345,-229.94 348.5,-219.94 341.5,-219.94"/>
</g>
<!-- AuthService -->
<g id="node7" class="node">
<title>AuthService</title>
<ellipse fill="#fdb462" stroke="black" cx="739" cy="-248" rx="59.11" ry="18"/>
<text text-anchor="middle" x="739" y="-243.8" font-family="Times,serif" font-size="14.00">AuthService</text>
</g>
<!-- AuthService&#45;&gt;AuthModule -->
<g id="edge6" class="edge">
<title>AuthService&#45;&gt;AuthModule</title>
<path fill="none" stroke="black" d="M741.16,-229.89C741.16,-220.1 741.16,-210 741.16,-210 741.16,-210 460.11,-210 460.11,-210 460.11,-210 460.11,-200.11 460.11,-200.11"/>
<polygon fill="black" stroke="black" points="463.61,-200.11 460.11,-190.11 456.61,-200.11 463.61,-200.11"/>
</g>
<!-- PostsService -->
<g id="node8" class="node">
<title>PostsService</title>
<ellipse fill="#fdb462" stroke="black" cx="84" cy="-104" rx="60.27" ry="18"/>
<text text-anchor="middle" x="84" y="-99.8" font-family="Times,serif" font-size="14.00">PostsService</text>
</g>
<!-- PostsService&#45;&gt;PostsModule -->
<g id="edge8" class="edge">
<title>PostsService&#45;&gt;PostsModule</title>
<path fill="none" stroke="black" d="M144.58,-104C154.37,-104 161.37,-104 161.37,-104 161.37,-104 161.37,-143.78 161.37,-143.78"/>
<polygon fill="black" stroke="black" points="157.87,-143.78 161.37,-153.78 164.87,-143.78 157.87,-143.78"/>
</g>
<!-- TemplatePlaygroundComponent -->
<g id="node9" class="node">
<title>TemplatePlaygroundComponent</title>
<polygon fill="#ffffb3" stroke="black" points="1046.25,-122 847.75,-122 847.75,-86 1046.25,-86 1046.25,-122"/>
<text text-anchor="middle" x="947" y="-99.8" font-family="Times,serif" font-size="14.00">TemplatePlaygroundComponent</text>
</g>
<!-- TemplatePlaygroundModule -->
<g id="node10" class="node">
<title>TemplatePlaygroundModule</title>
<polygon fill="#8dd3c7" stroke="black" points="1337.47,-190 1334.47,-194 1313.47,-194 1310.47,-190 1160.53,-190 1160.53,-154 1337.47,-154 1337.47,-190"/>
<text text-anchor="middle" x="1249" y="-167.8" font-family="Times,serif" font-size="14.00">TemplatePlaygroundModule</text>
</g>
<!-- TemplatePlaygroundComponent&#45;&gt;TemplatePlaygroundModule -->
<g id="edge9" class="edge">
<title>TemplatePlaygroundComponent&#45;&gt;TemplatePlaygroundModule</title>
<path fill="none" stroke="black" d="M947,-122.22C947,-142.37 947,-172 947,-172 947,-172 1150.43,-172 1150.43,-172"/>
<polygon fill="black" stroke="black" points="1150.43,-175.5 1160.43,-172 1150.43,-168.5 1150.43,-175.5"/>
</g>
<!-- TemplatePlaygroundComponent  -->
<g id="node11" class="node">
<title>TemplatePlaygroundComponent </title>
<polygon fill="#80b1d3" stroke="black" points="1350.25,-266 1147.75,-266 1147.75,-230 1350.25,-230 1350.25,-266"/>
<text text-anchor="middle" x="1249" y="-243.8" font-family="Times,serif" font-size="14.00">TemplatePlaygroundComponent </text>
</g>
<!-- TemplatePlaygroundModule&#45;&gt;TemplatePlaygroundComponent  -->
<g id="edge10" class="edge">
<title>TemplatePlaygroundModule&#45;&gt;TemplatePlaygroundComponent </title>
<path fill="none" stroke="black" stroke-dasharray="1,5" d="M1249,-190.01C1249,-190.01 1249,-219.85 1249,-219.85"/>
<polygon fill="black" stroke="black" points="1245.5,-219.85 1249,-229.85 1252.5,-219.85 1245.5,-219.85"/>
</g>
<!-- HbsRenderService -->
<g id="node12" class="node">
<title>HbsRenderService</title>
<ellipse fill="#fdb462" stroke="black" cx="1550" cy="-104" rx="83.37" ry="18"/>
<text text-anchor="middle" x="1550" y="-99.8" font-family="Times,serif" font-size="14.00">HbsRenderService</text>
</g>
<!-- HbsRenderService&#45;&gt;TemplatePlaygroundModule -->
<g id="edge11" class="edge">
<title>HbsRenderService&#45;&gt;TemplatePlaygroundModule</title>
<path fill="none" stroke="black" d="M1550,-122.22C1550,-142.37 1550,-172 1550,-172 1550,-172 1347.68,-172 1347.68,-172"/>
<polygon fill="black" stroke="black" points="1347.68,-168.5 1337.68,-172 1347.68,-175.5 1347.68,-168.5"/>
</g>
<!-- TemplateEditorService -->
<g id="node13" class="node">
<title>TemplateEditorService</title>
<ellipse fill="#fdb462" stroke="black" cx="1348" cy="-104" rx="100.7" ry="18"/>
<text text-anchor="middle" x="1348" y="-99.8" font-family="Times,serif" font-size="14.00">TemplateEditorService</text>
</g>
<!-- TemplateEditorService&#45;&gt;TemplatePlaygroundModule -->
<g id="edge12" class="edge">
<title>TemplateEditorService&#45;&gt;TemplatePlaygroundModule</title>
<path fill="none" stroke="black" d="M1292.44,-119.09C1292.44,-119.09 1292.44,-143.56 1292.44,-143.56"/>
<polygon fill="black" stroke="black" points="1288.94,-143.56 1292.44,-153.56 1295.94,-143.56 1288.94,-143.56"/>
</g>
<!-- ZipExportService -->
<g id="node14" class="node">
<title>ZipExportService</title>
<ellipse fill="#fdb462" stroke="black" cx="1150" cy="-104" rx="79.87" ry="18"/>
<text text-anchor="middle" x="1150" y="-99.8" font-family="Times,serif" font-size="14.00">ZipExportService</text>
</g>
<!-- ZipExportService&#45;&gt;TemplatePlaygroundModule -->
<g id="edge13" class="edge">
<title>ZipExportService&#45;&gt;TemplatePlaygroundModule</title>
<path fill="none" stroke="black" d="M1195.1,-119.09C1195.1,-119.09 1195.1,-143.56 1195.1,-143.56"/>
<polygon fill="black" stroke="black" points="1191.6,-143.56 1195.1,-153.56 1198.6,-143.56 1191.6,-143.56"/>
</g>
<!-- UsersService -->
<g id="node16" class="node">
<title>UsersService</title>
<ellipse fill="#fdb462" stroke="black" cx="746" cy="-172" rx="61.95" ry="18"/>
<text text-anchor="middle" x="746" y="-167.8" font-family="Times,serif" font-size="14.00">UsersService</text>
</g>
<!-- UsersService&#45;&gt;UsersModule -->
<g id="edge15" class="edge">
<title>UsersService&#45;&gt;UsersModule</title>
<path fill="none" stroke="black" d="M746,-153.71C746,-131.79 746,-98 746,-98 746,-98 269.82,-98 269.82,-98"/>
<polygon fill="black" stroke="black" points="269.82,-94.5 259.82,-98 269.82,-101.5 269.82,-94.5"/>
</g>
</g>
</svg>
